<?xml version="1.0" encoding="UTF-8" standalone="no"?>
<!-- Created with Inkscape (http://www.inkscape.org/) -->
<svg
   xmlns:svg="http://www.w3.org/2000/svg"
   xmlns="http://www.w3.org/2000/svg"
   version="1.0"
   width="173"
   height="179"
   id="svg2">
  <defs
     id="defs5" />
  <g
     transform="translate(0.3474518,-0.3788854)"
     id="g3187">
    <g
       id="g3182">
      <path
         d="M 105.56217,47.687838 C 100.13679,58.087755 94.794894,69.298068 90.043522,80.803644 C 86.801202,71.4678 96.378536,63.430472 100.69401,44.613211"
         id="path3174"
         style="fill:#000000;fill-opacity:1;fill-rule:evenodd;stroke:none;stroke-width:0.30000001;stroke-linecap:butt;stroke-linejoin:miter;stroke-miterlimit:4;stroke-dasharray:none;stroke-opacity:1" />
      <path
         d="M 97.619384,42.819679 C 103.0204,26.579017 94.734168,13.995058 86.345754,13.995058 C 77.71198,13.995058 76.064711,22.529433 80.837049,33.339582 L 75.072124,26.165453 C 66.442101,7.1855058 86.241003,5.7960546 88.907943,5.7960546 C 97.553138,5.7960546 104.72607,11.922012 107.24107,21.56807 C 109.75606,31.214128 106.0746,45.509977 106.0746,45.509977"
         id="path3176"
         style="fill:#000000;fill-opacity:1;fill-rule:evenodd;stroke:none;stroke-width:0.2;stroke-linecap:butt;stroke-linejoin:miter;stroke-miterlimit:4;stroke-dasharray:none;stroke-opacity:1" />
      <path
         d="M 139.95698,22.918522 C 139.09474,10.161668 145.61575,5.4230008 153.64048,5.4230008 C 160.35436,5.4230008 167.59457,10.491029 167.59457,21.00766 C 167.59457,38.548775 142.72644,54.986336 124.28543,54.986336 C 98.100134,54.986336 59.950238,17.870368 38.721075,17.870368 C 25.205969,17.870368 16.511088,29.725113 16.511088,38.762495 C 16.511088,44.78204 19.544015,46.873421 22.547259,51.274901 C 21.911538,56.155208 18.304095,59.968623 12.86336,59.968623 C 10.447112,59.968623 4.7105264,58.729061 4.7105264,49.551113 C 4.7105264,33.595188 24.355925,9.3304655 44.75,9.3304655 C 55.169194,9.3304655 67.386374,16.655769 74.167171,22.249057 C 80.947967,27.842345 82.654729,31.522445 89.445802,35.464828 C 97.18946,39.96021 99.871118,41.103871 106.84683,43.47895 C 113.82253,45.854029 117.30001,49.6417 126.45951,49.6417 C 143.12753,49.6417 147.11336,42.394737 147.11336,33.698381 C 147.11336,25.002024 142.31225,24.820851 139.95698,22.918522 z"
         id="path3178"
         style="fill:#000000;fill-opacity:1;fill-rule:evenodd;stroke:none;stroke-width:0.2;stroke-linecap:butt;stroke-linejoin:miter;stroke-miterlimit:3.9000001;stroke-dasharray:none;stroke-opacity:1" />
    </g>
    <path
       d="M 86.22332,86.634184 C 87.96369,86.963428 89.1617,87.563851 90.2247,88.231781 C 99.52112,72.134066 108.56781,65.947368 120.75253,65.947368 C 138.63303,65.947368 148.83451,81.075405 148.83451,95.750506 C 148.83451,118.50925 130.67161,127.3719 120.03853,132.88061 C 109.40545,138.38931 91.75838,144.75792 91.75838,155.68408 C 91.75838,163.11553 98.8044,168.27083 105.53014,168.27083 C 113.55337,168.27083 121.93364,163.78503 124.39425,148.83023 C 125.4315,142.52618 132.97758,143.51369 136.56465,145.30722 C 140.15171,147.10075 142.76798,149.41888 140.79226,156.90112 C 138.68694,164.87417 123.88491,174.33477 103.90334,174.33477 C 63.768832,174.33477 30.890182,139.97088 30.890182,102.90688 C 30.890182,86.601214 38.286298,59.473904 63.798495,59.473904 C 84.44412,59.473904 87.24252,79.202756 86.22332,86.634184 z"
       id="path3180"
       style="fill:#000000;fill-opacity:1;fill-rule:evenodd;stroke:none;stroke-width:0.2;stroke-linecap:butt;stroke-linejoin:miter;stroke-miterlimit:4;stroke-dasharray:none;stroke-opacity:1" />
  </g>
</svg>
